<?xml version="1.0" encoding="UTF-8" standalone="no"?>
<!-- Created with Inkscape (http://www.inkscape.org/) -->
<svg
   xmlns:dc="http://purl.org/dc/elements/1.1/"
   xmlns:cc="http://creativecommons.org/ns#"
   xmlns:rdf="http://www.w3.org/1999/02/22-rdf-syntax-ns#"
   xmlns:svg="http://www.w3.org/2000/svg"
   xmlns="http://www.w3.org/2000/svg"
   xmlns:sodipodi="http://sodipodi.sourceforge.net/DTD/sodipodi-0.dtd"
   xmlns:inkscape="http://www.inkscape.org/namespaces/inkscape"
   width="1052.3622"
   height="744.09448"
   id="svg2"
   sodipodi:version="0.32"
   inkscape:version="0.46"
   version="1.0"
   sodipodi:docname="logo_sweetbox.svg"
   inkscape:output_extension="org.inkscape.output.svg.inkscape"
   inkscape:export-filename="/home/akhe/development/hardware/sweetbox - room controler/docs/logo_sweetbox.png"
   inkscape:export-xdpi="90"
   inkscape:export-ydpi="90">
  <defs
     id="defs4">
    <inkscape:perspective
       sodipodi:type="inkscape:persp3d"
       inkscape:vp_x="0 : 526.18109 : 1"
       inkscape:vp_y="0 : 1000 : 0"
       inkscape:vp_z="744.09448 : 526.18109 : 1"
       inkscape:persp3d-origin="372.04724 : 350.78739 : 1"
       id="perspective10" />
  </defs>
  <sodipodi:namedview
     id="base"
     pagecolor="#ffffff"
     bordercolor="#666666"
     borderopacity="1.0"
     gridtolerance="10000"
     guidetolerance="10"
     objecttolerance="10"
     inkscape:pageopacity="0.0"
     inkscape:pageshadow="2"
     inkscape:zoom="0.35355339"
     inkscape:cx="675.747"
     inkscape:cy="455.37044"
     inkscape:document-units="px"
     inkscape:current-layer="layer1"
     showgrid="false"
     inkscape:window-width="642"
     inkscape:window-height="729"
     inkscape:window-x="-1"
     inkscape:window-y="25" />
  <metadata
     id="metadata7">
    <rdf:RDF>
      <cc:Work
         rdf:about="">
        <dc:format>image/svg+xml</dc:format>
        <dc:type
           rdf:resource="http://purl.org/dc/dcmitype/StillImage" />
      </cc:Work>
    </rdf:RDF>
  </metadata>
  <g
     inkscape:label="Layer 1"
     inkscape:groupmode="layer"
     id="layer1">
    <text
       xml:space="preserve"
       style="font-size:240.19468689000001405px;font-style:normal;font-variant:normal;font-weight:bold;font-stretch:normal;text-align:start;line-height:125%;writing-mode:lr-tb;text-anchor:start;fill:#000080;fill-opacity:1;stroke:none;stroke-width:1px;stroke-linecap:butt;stroke-linejoin:miter;stroke-opacity:1;font-family:Ouhod;-inkscape-font-specification:Ouhod Bold"
       x="32.625458"
       y="365.45212"
       id="text2383"
       transform="scale(0.8857502,1.1289865)"
       sodipodi:linespacing="125%"><tspan
         sodipodi:role="line"
         id="tspan2385"
         x="32.625458"
         y="365.45212">SweetBox</tspan></text>
    <path
       style="opacity:1;fill:#000080;fill-opacity:1;stroke:#000000;stroke-width:1.44603348000000009;stroke-miterlimit:4;stroke-dasharray:none;stroke-opacity:1"
       d="M 660.33207,313.64195 L 660.33207,214.95757 L 699.75327,215.21604 C 738.29404,215.46876 739.29266,215.51028 744.46623,217.07505 C 758.22728,221.23718 767.11365,228.67689 773.31854,241.23032 C 778.75908,252.23733 780.72267,263.136 779.20564,273.90588 C 777.6219,285.14933 774.03575,292.05893 764.89935,301.47039 L 758.80442,307.74882 L 766.03435,314.95951 C 776.52045,325.41771 781.43041,334.54417 783.42737,347.28907 C 784.4957,354.10744 783.83912,365.74642 781.97228,373.08188 C 780.02036,380.75168 775.19257,390.52557 770.67423,395.9549 C 764.09857,403.85637 752.54469,409.85514 740.56822,411.58593 C 737.75743,411.99214 719.45629,412.30432 697.98551,412.3123 L 660.33207,412.32631 L 660.33207,313.64195 z M 740.32948,377.42094 C 750.33987,373.65107 755.21289,362.94276 753.61391,348.2288 C 752.59777,338.87824 748.62565,332.82371 741.2958,329.45293 C 737.87044,327.87772 737.03859,327.82042 714.60252,327.61445 L 691.44477,327.40185 L 691.44477,352.77565 C 691.44477,366.73126 691.68002,378.38473 691.96755,378.67226 C 692.25508,378.95978 702.51696,379.07349 714.77174,378.92492 C 733.79721,378.69428 737.53192,378.4745 740.32947,377.42096 L 740.32948,377.42094 z M 735.41077,292.92157 C 740.44527,291.29228 744.65571,287.80409 746.89821,283.40467 C 749.59953,278.10507 750.25451,269.16186 748.40679,262.80591 C 746.82,257.34755 742.2616,252.43399 736.80063,250.29546 C 733.02299,248.81613 731.71853,248.73022 712.30442,248.68201 L 691.79832,248.63109 L 691.61108,270.54449 C 691.5081,282.59688 691.58746,292.88431 691.78745,293.40545 C 692.26756,294.65663 731.39041,294.22267 735.41077,292.92158 L 735.41077,292.92157 z"
       id="path2387" />
    <path
       style="opacity:1;fill:#ffff00;fill-opacity:1;stroke:#000000;stroke-width:5.78413391000000043;stroke-miterlimit:4;stroke-dasharray:none;stroke-opacity:1"
       d="M 377.91362,414.03389 C 354.92835,405.9402 342.55828,380.67923 342.55828,341.83463 C 342.55828,294.72322 362.03605,265.53094 393.46997,265.53094 C 422.88759,265.53094 441.74319,289.39888 446.1268,332.18548 L 447.99124,350.38375 L 408.42514,350.38375 L 368.85892,350.38375 L 371.15122,364.88462 C 374.10478,383.56864 379.91991,389.98173 393.90835,389.98173 C 404.45671,389.98173 416.09739,382.5626 416.09739,375.8396 C 416.09739,374.28396 422.46135,373.01117 430.23952,373.01117 C 438.0177,373.01117 444.38166,373.69828 444.38166,374.53807 C 444.38166,378.73526 432.80858,397.80825 426.94064,403.28176 C 419.37194,410.34171 401.81329,418.32769 394.26793,418.14186 C 391.49553,418.07356 384.13616,416.22498 377.91362,414.03389 z M 417.81421,323.28236 C 416.86994,320.82168 416.09739,316.26899 416.09739,313.1653 C 416.09739,305.8315 401.20346,290.98678 393.84527,290.98678 C 383.84246,290.98678 373.47449,302.58068 371.70947,315.73993 L 370.09772,327.75634 L 394.81435,327.75634 C 416.1907,327.75634 419.29903,327.1517 417.81421,323.28236 z"
       id="path2389" />
    <path
       style="opacity:1;fill:#ffff00;fill-opacity:1;stroke:#000000;stroke-width:5.78413391000000043;stroke-miterlimit:4;stroke-dasharray:none;stroke-opacity:1"
       d="M 496.70756,414.98053 C 485.21207,410.79245 476.1195,402.12213 469.00826,388.56752 C 461.90702,375.03191 458.85534,327.73405 463.87942,309.07599 C 475.74702,265.00324 520.47435,250.75744 547.21261,282.53403 C 556.43568,293.49503 563.1756,315.79116 563.1756,335.34076 L 563.1756,350.38375 L 524.74324,350.38375 L 486.3108,350.38375 L 488.18568,362.40457 C 490.99493,380.41664 497.87559,388.40076 511.46663,389.41905 C 521.19277,390.14773 523.87893,389.02604 530.09315,381.64087 C 536.22479,374.35382 539.35232,373.01117 550.19507,373.01117 C 563.0292,373.01117 563.03412,373.01505 560.08311,380.77682 C 555.65176,392.43206 544.09344,406.43633 535.04203,411.11701 C 523.8158,416.92233 506.75671,418.64159 496.70756,414.9805 L 496.70756,414.98053 z M 534.88072,319.97816 C 534.867,309.86832 525.62195,294.84527 517.90741,292.39675 C 503.9939,287.98076 493.17618,298.09176 488.39829,319.97816 L 486.70033,327.75634 L 510.79584,327.75634 L 534.89133,327.75634 L 534.88072,319.97816 z"
       id="path2391" />
    <path
       style="opacity:1;fill:#ff0000;fill-opacity:1;stroke:#000000;stroke-width:5.78413391000000043;stroke-miterlimit:4;stroke-dasharray:none;stroke-opacity:1"
       d="M 78.726108,414.36905 C 57.541641,408.48349 43.074349,391.30564 38.423736,366.51566 L 36.458602,356.04061 L 50.696169,356.04061 C 64.518409,356.04061 65.031146,356.33578 68.273089,366.15899 C 75.12139,386.90958 106.95056,394.64176 124.55237,379.83082 C 131.87268,373.67124 133.25468,370.50646 133.25468,359.90325 C 133.25468,342.21005 125.95368,335.87599 96.378463,327.91071 C 62.133253,318.68775 51.860434,312.77834 45.422962,298.59901 C 31.401487,267.71483 45.494521,226.34164 73.144546,217.21631 C 86.241946,212.89374 109.4036,212.84325 122.32897,217.109 C 140.23648,223.01903 155.88209,245.62778 155.88209,265.59506 C 155.88209,274.23268 155.74002,274.31694 142.61292,273.46408 C 130.24636,272.66067 129.18078,271.96937 126.94779,263.30188 C 121.3763,241.67593 85.879907,235.66787 71.826329,253.97212 C 69.931283,256.4404 68.340293,263.01098 68.290795,268.57345 C 68.159613,283.32466 76.546041,289.54533 107.85339,297.91917 C 135.85151,305.40792 144.56315,310.15006 154.29311,323.19847 C 159.13365,329.68985 160.12473,335.18828 160.12473,355.55061 C 160.12473,376.34309 159.11719,381.70273 153.51461,390.71387 C 140.28827,411.98704 107.49084,422.36066 78.726079,414.36908 L 78.726108,414.36905 z"
       id="path2393" />
    <path
       style="opacity:1;fill:#ff0000;fill-opacity:1;stroke:#000000;stroke-width:5.78413391;stroke-miterlimit:4;stroke-dasharray:none;stroke-opacity:1"
       d=""
       id="path2395" />
    <path
       style="opacity:1;fill:#0000ff;fill-opacity:1;stroke:#000000;stroke-width:5.78413391000000043;stroke-miterlimit:4;stroke-dasharray:none;stroke-opacity:1"
       d="M 189.60051,341.31669 L 173.94058,269.77358 L 186.55794,268.89383 C 193.65503,268.39894 200.01902,269.37899 201.10355,271.13377 C 202.16404,272.84966 206.62385,295.20123 211.0143,320.80392 C 215.4047,346.40662 219.80678,367.35432 220.79662,367.35432 C 221.78648,367.35432 226.22346,345.02026 230.65665,317.72309 L 238.71699,268.09188 L 253.08011,268.93269 L 267.44329,269.77358 L 272.36275,299.47207 C 275.06845,315.80623 278.74017,337.88131 280.52208,348.5278 C 282.30402,359.17434 284.7142,366.81106 285.8781,365.49836 C 287.04197,364.18571 290.12914,349.74736 292.73842,333.41319 C 295.34773,317.07902 298.84573,295.75975 300.51179,286.03704 L 303.54104,268.35937 L 317.3928,268.35937 C 325.01126,268.35937 331.24457,269.00156 331.24457,269.78648 C 331.24457,271.23093 304.01087,394.50255 301.09753,406.24519 C 299.72979,411.7581 297.67561,412.60915 285.73699,412.60915 C 269.65588,412.60915 272.16071,418.5237 261.81144,356.1146 C 255.50823,318.1047 252.88017,306.3004 251.77197,311.02147 C 251.61982,311.66963 247.48325,334.47385 242.57958,361.69746 L 233.66384,411.19494 L 219.46214,412.02737 L 205.26046,412.85989 L 189.60051,341.31669 z"
       id="path2397" />
    <path
       style="opacity:1;fill:#ff0000;fill-opacity:1;stroke:#000000;stroke-width:5.78413391000000043;stroke-miterlimit:4;stroke-dasharray:none;stroke-opacity:1"
       d="M 662.17055,313.41508 L 662.17055,217.04949 L 705.81479,217.95566 C 755.22478,218.98162 760.51606,220.90495 771.05948,241.67183 C 780.08731,259.45347 778.76338,279.14368 767.46189,295.17724 L 758.2019,308.31444 L 768.12719,319.90988 C 779.3264,332.99365 782.21018,343.80913 780.38098,365.86719 C 779.46785,376.87805 776.92374,383.96615 771.18347,391.49203 C 759.03388,407.42091 750.27144,409.78072 703.27359,409.78072 L 662.17055,409.78072 L 662.17055,313.41508 z M 748.04216,373.1654 C 750.93601,370.31777 753.93906,362.35072 754.71566,355.46075 C 755.88129,345.11948 754.96321,341.60293 749.4542,335.30767 C 743.39257,328.38099 740.3819,327.51671 716.61777,325.88132 L 690.45482,324.0808 L 690.45482,350.90302 C 690.45482,365.65522 691.40941,378.7085 692.57614,379.91033 C 693.74286,381.11215 705.51619,381.25109 718.73909,380.21911 C 736.41277,378.83974 744.17434,376.97142 748.04219,373.16538 L 748.04216,373.1654 z M 733.27596,293.81521 C 742.36248,293.81521 749.85179,283.59163 749.85179,271.18779 C 749.85179,252.73545 743.32825,248.56038 714.49645,248.56038 L 690.45482,248.56038 L 690.45482,270.99108 C 690.45482,296.42172 691.34198,297.2683 715.59832,294.98428 C 722.42693,294.3413 730.38186,293.81521 733.27599,293.81521 L 733.27596,293.81521 z"
       id="path2399" />
    <path
       style="opacity:1;fill:#ff0000;fill-opacity:1;stroke:#000000;stroke-width:5.78413391;stroke-miterlimit:4;stroke-dasharray:none;stroke-opacity:1"
       d="M 664.99897,313.85745 L 664.99897,219.90451 L 702.04543,221.91838 C 751.26148,224.59378 755.55393,225.65017 763.17789,236.9634 C 775.77463,255.65574 775.10435,276.35853 761.23372,297.01136 L 752.95073,309.34438 L 759.5204,316.42908 C 773.28205,331.26947 776.15087,338.562 775.8219,357.86743 C 775.45974,379.12043 769.79132,391.34738 756.77694,398.94819 C 750.34014,402.70756 738.48881,404.33795 706.67243,405.84126 L 664.99897,407.81038 L 664.99897,313.85745 z M 746.54697,378.92301 C 752.99813,375.47043 758.33707,361.90247 758.33707,348.96049 C 758.33707,334.36795 748.1222,325.76538 728.29753,323.66233 C 719.15128,322.69207 706.25865,321.22912 699.64721,320.41134 L 687.62639,318.9244 L 687.62639,349.73904 C 687.62639,366.68706 688.58099,381.54932 689.74771,382.76627 C 692.64422,385.78749 739.66558,382.60579 746.54697,378.92298 L 746.54697,378.92301 z M 746.08353,289.85516 C 750.75038,284.42961 752.66754,278.71554 752.63691,270.32297 C 752.56224,249.86861 745.70181,245.73195 711.85396,245.73195 L 687.62639,245.73195 L 687.62639,269.20787 C 687.62639,284.15311 688.91115,294.01241 691.16193,296.33995 C 693.68457,298.94858 701.11335,299.64197 717.09218,298.76012 C 737.16977,297.65209 740.16946,296.7307 746.08356,289.85513 L 746.08353,289.85516 z"
       id="path2401" />
    <path
       style="opacity:1;fill:#ffff00;fill-opacity:1;stroke:#000000;stroke-width:5.78413391000000043;stroke-miterlimit:4;stroke-dasharray:none;stroke-opacity:1"
       d="M 843.97398,415.12159 C 831.48582,411.51263 816.17348,394.97051 810.84481,379.33174 C 805.79412,364.50892 804.90565,323.42333 809.2941,307.62464 C 815.9196,283.77246 832.71067,268.26413 854.13952,266.2051 C 873.32332,264.36178 880.95284,266.71625 894.0043,278.50745 C 909.3178,292.34236 915.35205,310.80902 915.18008,343.31269 C 914.96815,383.36618 901.18353,408.01952 874.92187,415.3131 C 862.57213,418.74296 856.37247,418.70461 843.97398,415.12156 L 843.97398,415.12159 z M 869.88506,386.71835 C 880.80754,381.74173 888.44472,363.17772 888.44472,341.6048 C 888.44472,282.85757 838.72804,276.01462 832.7927,333.94488 C 830.80618,353.33377 835.90357,371.81687 846.0301,381.9434 C 854.8529,390.76623 859.12442,391.62123 869.88512,386.71832 L 869.88506,386.71835 z"
       id="path2403" />
    <path
       style="opacity:1;fill:#00ff00;fill-opacity:1;stroke:#000000;stroke-width:5.78413391000000043;stroke-miterlimit:4;stroke-dasharray:none;stroke-opacity:1"
       d="M 950.31744,376.00577 L 969.05489,339.40244 L 951.39156,303.88088 L 933.7282,268.35937 L 949.97735,268.36862 L 966.22646,268.37775 L 974.3656,288.22369 C 978.8421,299.13899 983.47215,308.66756 984.65454,309.39832 C 985.83691,310.1291 990.52619,301.51246 995.07509,290.25029 L 1003.3458,269.77358 L 1019.4344,268.92534 C 1028.2831,268.45879 1035.5229,268.83174 1035.5229,269.75415 C 1035.5229,270.67656 1027.5708,286.49567 1017.8515,304.90776 L 1000.1802,338.38426 L 1019.4661,375.49674 L 1038.7519,412.60915 L 1022.1375,412.60915 L 1005.523,412.60915 L 996.27143,389.98173 C 991.18312,377.53665 986.15977,367.37092 985.10848,367.39123 C 984.05724,367.41151 978.92556,377.59387 973.70488,390.01864 L 964.21268,412.60915 L 947.89642,412.60915 L 931.57996,412.60915 L 950.31744,376.00577 z"
       id="path2405" />
  </g>
</svg>
